# xmcd
#
# Track frame offsets:
#	150
#	18646
#	31744
#	41081
#	54543
#	69651
#	83839
#	96923
#	109937
#	121415
#	130318
#	140462
#	150591
#	172759
#
# Disc length: 2631 seconds
#
# Revision: 0
# Processed by: cddbd v1.5.2PL0 Copyright (c) Steve Scherf et al.
# Submitted via: audiograbber 1.83.01
#
DISCID=b90a450e
DTITLE=John Schooley And His One Man Band - One Man Against The World
DYEAR=2007
DGENRE=Trash Blues
TTITLE0=One Man Against the World, Part I
TTITLE1=Somebody In My Home
TTITLE2=Cantrell Creek Breakdown
TTITLE3=Every Day Can Get You Down
TTITLE4=The Crooked Path
TTITLE5=Dawn South Blues
TTITLE6=My Baby Cried All Night Long
TTITLE7=Wildcat Tamer
TTITLE8=I Don´t Like the Blues No How
TTITLE9=Hudcore
TTITLE10=Miss Maybelle
TTITLE11=Aberdeen, Mississippi
TTITLE12=Screwdriver
TTITLE13=One Man Against the World, Part II
EXTD=
EXTT0=
EXTT1=
EXTT2=
EXTT3=
EXTT4=
EXTT5=
EXTT6=
EXTT7=
EXTT8=
EXTT9=
EXTT10=
EXTT11=
EXTT12=
EXTT13=
PLAYORDER=
